<mxfile host="app.diagrams.net" modified="2023-10-29T11:01:55.675Z" agent="Mozilla/5.0 (Macintosh; Intel Mac OS X 10_15_7) AppleWebKit/537.36 (KHTML, like Gecko) Chrome/117.0.0.0 Safari/537.36" etag="aP-TUe_tlD0rXTUtki9t" version="22.0.8" type="github">
  <diagram id="R2lEEEUBdFMjLlhIrx00" name="Page-1">
    <mxGraphModel dx="1354" dy="1442" grid="0" gridSize="10" guides="1" tooltips="1" connect="1" arrows="1" fold="1" page="0" pageScale="1" pageWidth="850" pageHeight="1100" math="0" shadow="0" extFonts="Permanent Marker^https://fonts.googleapis.com/css?family=Permanent+Marker">
      <root>
        <mxCell id="0" />
        <mxCell id="1" parent="0" />
        <mxCell id="C-vyLk0tnHw3VtMMgP7b-23" value="Tag" style="shape=table;startSize=30;container=1;collapsible=1;childLayout=tableLayout;fixedRows=0;rowLines=0;fontStyle=1;align=center;resizeLast=1;columnLines=0;" parent="1" vertex="1">
          <mxGeometry x="-171" y="-104" width="286" height="112.75" as="geometry" />
        </mxCell>
        <mxCell id="BaDLSpwHCjFPU6KFAHDN-98" style="shape=partialRectangle;collapsible=0;dropTarget=0;pointerEvents=0;fillColor=none;points=[[0,0.5],[1,0.5]];portConstraint=eastwest;top=0;left=0;right=0;bottom=0;" parent="C-vyLk0tnHw3VtMMgP7b-23" vertex="1">
          <mxGeometry y="30" width="286" height="35" as="geometry" />
        </mxCell>
        <mxCell id="BaDLSpwHCjFPU6KFAHDN-99" value="TagId" style="shape=partialRectangle;overflow=hidden;connectable=0;fillColor=none;top=0;left=0;bottom=0;right=0;fontStyle=4" parent="BaDLSpwHCjFPU6KFAHDN-98" vertex="1">
          <mxGeometry width="170" height="35" as="geometry">
            <mxRectangle width="170" height="35" as="alternateBounds" />
          </mxGeometry>
        </mxCell>
        <mxCell id="BaDLSpwHCjFPU6KFAHDN-100" value="id" style="shape=partialRectangle;overflow=hidden;connectable=0;fillColor=none;top=0;left=0;bottom=0;right=0;align=left;spacingLeft=6;" parent="BaDLSpwHCjFPU6KFAHDN-98" vertex="1">
          <mxGeometry x="170" width="116" height="35" as="geometry">
            <mxRectangle width="116" height="35" as="alternateBounds" />
          </mxGeometry>
        </mxCell>
        <mxCell id="C-vyLk0tnHw3VtMMgP7b-27" value="" style="shape=partialRectangle;collapsible=0;dropTarget=0;pointerEvents=0;fillColor=none;points=[[0,0.5],[1,0.5]];portConstraint=eastwest;top=0;left=0;right=0;bottom=0;" parent="C-vyLk0tnHw3VtMMgP7b-23" vertex="1">
          <mxGeometry y="65" width="286" height="20" as="geometry" />
        </mxCell>
        <mxCell id="C-vyLk0tnHw3VtMMgP7b-28" value="TagName" style="shape=partialRectangle;overflow=hidden;connectable=0;fillColor=none;top=0;left=0;bottom=0;right=0;" parent="C-vyLk0tnHw3VtMMgP7b-27" vertex="1">
          <mxGeometry width="170" height="20" as="geometry">
            <mxRectangle width="170" height="20" as="alternateBounds" />
          </mxGeometry>
        </mxCell>
        <mxCell id="C-vyLk0tnHw3VtMMgP7b-29" value="tag_name" style="shape=partialRectangle;overflow=hidden;connectable=0;fillColor=none;top=0;left=0;bottom=0;right=0;align=left;spacingLeft=6;" parent="C-vyLk0tnHw3VtMMgP7b-27" vertex="1">
          <mxGeometry x="170" width="116" height="20" as="geometry">
            <mxRectangle width="116" height="20" as="alternateBounds" />
          </mxGeometry>
        </mxCell>
        <mxCell id="3GKI9lWFmnvysXcDFJsr-8" style="shape=partialRectangle;collapsible=0;dropTarget=0;pointerEvents=0;fillColor=none;points=[[0,0.5],[1,0.5]];portConstraint=eastwest;top=0;left=0;right=0;bottom=0;" parent="C-vyLk0tnHw3VtMMgP7b-23" vertex="1">
          <mxGeometry y="85" width="286" height="28" as="geometry" />
        </mxCell>
        <mxCell id="3GKI9lWFmnvysXcDFJsr-9" value="TagColor" style="shape=partialRectangle;overflow=hidden;connectable=0;fillColor=none;top=0;left=0;bottom=0;right=0;" parent="3GKI9lWFmnvysXcDFJsr-8" vertex="1">
          <mxGeometry width="170" height="28" as="geometry">
            <mxRectangle width="170" height="28" as="alternateBounds" />
          </mxGeometry>
        </mxCell>
        <mxCell id="3GKI9lWFmnvysXcDFJsr-10" value="color" style="shape=partialRectangle;overflow=hidden;connectable=0;fillColor=none;top=0;left=0;bottom=0;right=0;align=left;spacingLeft=6;" parent="3GKI9lWFmnvysXcDFJsr-8" vertex="1">
          <mxGeometry x="170" width="116" height="28" as="geometry">
            <mxRectangle width="116" height="28" as="alternateBounds" />
          </mxGeometry>
        </mxCell>
        <mxCell id="BaDLSpwHCjFPU6KFAHDN-14" value="Discipline" style="shape=table;startSize=30;container=1;collapsible=1;childLayout=tableLayout;fixedRows=1;rowLines=0;fontStyle=1;align=center;resizeLast=1;strokeColor=default;perimeterSpacing=1;strokeWidth=1;swimlaneLine=1;columnLines=0;rounded=0;" parent="1" vertex="1">
          <mxGeometry x="420" y="440" width="330" height="183.00000000000057" as="geometry" />
        </mxCell>
        <mxCell id="BaDLSpwHCjFPU6KFAHDN-15" value="" style="shape=partialRectangle;collapsible=0;dropTarget=0;pointerEvents=0;fillColor=none;points=[[0,0.5],[1,0.5]];portConstraint=eastwest;top=0;left=0;right=0;bottom=0;strokeColor=inherit;" parent="BaDLSpwHCjFPU6KFAHDN-14" vertex="1">
          <mxGeometry y="30" width="330" height="48" as="geometry" />
        </mxCell>
        <mxCell id="BaDLSpwHCjFPU6KFAHDN-16" value="DisciplineId" style="shape=partialRectangle;overflow=hidden;connectable=0;fillColor=none;top=0;left=0;bottom=0;right=0;fontStyle=4;strokeColor=inherit;strokeWidth=0;" parent="BaDLSpwHCjFPU6KFAHDN-15" vertex="1">
          <mxGeometry width="170" height="48" as="geometry">
            <mxRectangle width="170" height="48" as="alternateBounds" />
          </mxGeometry>
        </mxCell>
        <mxCell id="BaDLSpwHCjFPU6KFAHDN-17" value="id" style="shape=partialRectangle;overflow=hidden;connectable=0;fillColor=none;top=0;left=0;bottom=0;right=0;align=left;spacingLeft=6;fontStyle=0;strokeColor=inherit;" parent="BaDLSpwHCjFPU6KFAHDN-15" vertex="1">
          <mxGeometry x="170" width="120" height="48" as="geometry">
            <mxRectangle width="120" height="48" as="alternateBounds" />
          </mxGeometry>
        </mxCell>
        <mxCell id="BaDLSpwHCjFPU6KFAHDN-108" style="shape=partialRectangle;overflow=hidden;connectable=0;fillColor=none;top=0;left=0;bottom=0;right=0;align=left;spacingLeft=6;fontStyle=0;strokeColor=inherit;" parent="BaDLSpwHCjFPU6KFAHDN-15" vertex="1">
          <mxGeometry x="290" width="40" height="48" as="geometry">
            <mxRectangle width="40" height="48" as="alternateBounds" />
          </mxGeometry>
        </mxCell>
        <mxCell id="BaDLSpwHCjFPU6KFAHDN-18" value="" style="shape=partialRectangle;collapsible=0;dropTarget=0;pointerEvents=0;fillColor=none;points=[[0,0.5],[1,0.5]];portConstraint=eastwest;top=0;left=0;right=0;bottom=0;" parent="BaDLSpwHCjFPU6KFAHDN-14" vertex="1">
          <mxGeometry y="78" width="330" height="35" as="geometry" />
        </mxCell>
        <mxCell id="BaDLSpwHCjFPU6KFAHDN-19" value="DisciplineName" style="shape=partialRectangle;overflow=hidden;connectable=0;fillColor=none;top=0;left=0;bottom=0;right=0;strokeColor=inherit;" parent="BaDLSpwHCjFPU6KFAHDN-18" vertex="1">
          <mxGeometry width="170" height="35" as="geometry">
            <mxRectangle width="170" height="35" as="alternateBounds" />
          </mxGeometry>
        </mxCell>
        <mxCell id="BaDLSpwHCjFPU6KFAHDN-20" value="discipline_name" style="shape=partialRectangle;overflow=hidden;connectable=0;fillColor=none;top=0;left=0;bottom=0;right=0;align=left;spacingLeft=6;perimeterSpacing=4;strokeColor=default;strokeWidth=0;" parent="BaDLSpwHCjFPU6KFAHDN-18" vertex="1">
          <mxGeometry x="170" width="120" height="35" as="geometry">
            <mxRectangle width="120" height="35" as="alternateBounds" />
          </mxGeometry>
        </mxCell>
        <mxCell id="BaDLSpwHCjFPU6KFAHDN-109" value="K1" style="shape=partialRectangle;overflow=hidden;connectable=0;fillColor=none;top=0;left=0;bottom=0;right=0;align=left;spacingLeft=6;perimeterSpacing=4;strokeColor=default;strokeWidth=0;" parent="BaDLSpwHCjFPU6KFAHDN-18" vertex="1">
          <mxGeometry x="290" width="40" height="35" as="geometry">
            <mxRectangle width="40" height="35" as="alternateBounds" />
          </mxGeometry>
        </mxCell>
        <mxCell id="BaDLSpwHCjFPU6KFAHDN-105" style="shape=partialRectangle;collapsible=0;dropTarget=0;pointerEvents=0;fillColor=none;points=[[0,0.5],[1,0.5]];portConstraint=eastwest;top=0;left=0;right=0;bottom=0;" parent="BaDLSpwHCjFPU6KFAHDN-14" vertex="1">
          <mxGeometry y="113" width="330" height="35" as="geometry" />
        </mxCell>
        <mxCell id="BaDLSpwHCjFPU6KFAHDN-106" value="Hours" style="shape=partialRectangle;overflow=hidden;connectable=0;fillColor=none;top=0;left=0;bottom=0;right=0;strokeColor=inherit;" parent="BaDLSpwHCjFPU6KFAHDN-105" vertex="1">
          <mxGeometry width="170" height="35" as="geometry">
            <mxRectangle width="170" height="35" as="alternateBounds" />
          </mxGeometry>
        </mxCell>
        <mxCell id="BaDLSpwHCjFPU6KFAHDN-107" value="discipline_hours" style="shape=partialRectangle;overflow=hidden;connectable=0;fillColor=none;top=0;left=0;bottom=0;right=0;align=left;spacingLeft=6;perimeterSpacing=4;strokeColor=default;strokeWidth=0;" parent="BaDLSpwHCjFPU6KFAHDN-105" vertex="1">
          <mxGeometry x="170" width="120" height="35" as="geometry">
            <mxRectangle width="120" height="35" as="alternateBounds" />
          </mxGeometry>
        </mxCell>
        <mxCell id="BaDLSpwHCjFPU6KFAHDN-110" style="shape=partialRectangle;overflow=hidden;connectable=0;fillColor=none;top=0;left=0;bottom=0;right=0;align=left;spacingLeft=6;perimeterSpacing=4;strokeColor=default;strokeWidth=0;" parent="BaDLSpwHCjFPU6KFAHDN-105" vertex="1">
          <mxGeometry x="290" width="40" height="35" as="geometry">
            <mxRectangle width="40" height="35" as="alternateBounds" />
          </mxGeometry>
        </mxCell>
        <mxCell id="BaDLSpwHCjFPU6KFAHDN-137" style="shape=partialRectangle;collapsible=0;dropTarget=0;pointerEvents=0;fillColor=none;points=[[0,0.5],[1,0.5]];portConstraint=eastwest;top=0;left=0;right=0;bottom=0;" parent="BaDLSpwHCjFPU6KFAHDN-14" vertex="1">
          <mxGeometry y="148" width="330" height="35" as="geometry" />
        </mxCell>
        <mxCell id="BaDLSpwHCjFPU6KFAHDN-138" value="Aim" style="shape=partialRectangle;overflow=hidden;connectable=0;fillColor=none;top=0;left=0;bottom=0;right=0;strokeColor=inherit;" parent="BaDLSpwHCjFPU6KFAHDN-137" vertex="1">
          <mxGeometry width="170" height="35" as="geometry">
            <mxRectangle width="170" height="35" as="alternateBounds" />
          </mxGeometry>
        </mxCell>
        <mxCell id="BaDLSpwHCjFPU6KFAHDN-139" value="discipline_text" style="shape=partialRectangle;overflow=hidden;connectable=0;fillColor=none;top=0;left=0;bottom=0;right=0;align=left;spacingLeft=6;perimeterSpacing=4;strokeColor=default;strokeWidth=0;" parent="BaDLSpwHCjFPU6KFAHDN-137" vertex="1">
          <mxGeometry x="170" width="120" height="35" as="geometry">
            <mxRectangle width="120" height="35" as="alternateBounds" />
          </mxGeometry>
        </mxCell>
        <mxCell id="BaDLSpwHCjFPU6KFAHDN-140" style="shape=partialRectangle;overflow=hidden;connectable=0;fillColor=none;top=0;left=0;bottom=0;right=0;align=left;spacingLeft=6;perimeterSpacing=4;strokeColor=default;strokeWidth=0;" parent="BaDLSpwHCjFPU6KFAHDN-137" vertex="1">
          <mxGeometry x="290" width="40" height="35" as="geometry">
            <mxRectangle width="40" height="35" as="alternateBounds" />
          </mxGeometry>
        </mxCell>
        <mxCell id="3GKI9lWFmnvysXcDFJsr-1" value="Employee" style="shape=table;startSize=30;container=1;collapsible=1;childLayout=tableLayout;fixedRows=0;rowLines=0;fontStyle=1;align=center;resizeLast=1;columnLines=0;" parent="1" vertex="1">
          <mxGeometry x="170" y="-516" width="275" height="118" as="geometry" />
        </mxCell>
        <mxCell id="3GKI9lWFmnvysXcDFJsr-2" style="shape=partialRectangle;collapsible=0;dropTarget=0;pointerEvents=0;fillColor=none;points=[[0,0.5],[1,0.5]];portConstraint=eastwest;top=0;left=0;right=0;bottom=0;" parent="3GKI9lWFmnvysXcDFJsr-1" vertex="1">
          <mxGeometry y="30" width="275" height="32" as="geometry" />
        </mxCell>
        <mxCell id="3GKI9lWFmnvysXcDFJsr-3" value="EmployeeId" style="shape=partialRectangle;overflow=hidden;connectable=0;fillColor=none;top=0;left=0;bottom=0;right=0;fontStyle=4" parent="3GKI9lWFmnvysXcDFJsr-2" vertex="1">
          <mxGeometry width="170" height="32" as="geometry">
            <mxRectangle width="170" height="32" as="alternateBounds" />
          </mxGeometry>
        </mxCell>
        <mxCell id="3GKI9lWFmnvysXcDFJsr-4" value="id" style="shape=partialRectangle;overflow=hidden;connectable=0;fillColor=none;top=0;left=0;bottom=0;right=0;align=left;spacingLeft=6;" parent="3GKI9lWFmnvysXcDFJsr-2" vertex="1">
          <mxGeometry x="170" width="105" height="32" as="geometry">
            <mxRectangle width="105" height="32" as="alternateBounds" />
          </mxGeometry>
        </mxCell>
        <mxCell id="3GKI9lWFmnvysXcDFJsr-5" value="" style="shape=partialRectangle;collapsible=0;dropTarget=0;pointerEvents=0;fillColor=none;points=[[0,0.5],[1,0.5]];portConstraint=eastwest;top=0;left=0;right=0;bottom=0;" parent="3GKI9lWFmnvysXcDFJsr-1" vertex="1">
          <mxGeometry y="62" width="275" height="28" as="geometry" />
        </mxCell>
        <mxCell id="3GKI9lWFmnvysXcDFJsr-6" value="EmployeeName" style="shape=partialRectangle;overflow=hidden;connectable=0;fillColor=none;top=0;left=0;bottom=0;right=0;" parent="3GKI9lWFmnvysXcDFJsr-5" vertex="1">
          <mxGeometry width="170" height="28" as="geometry">
            <mxRectangle width="170" height="28" as="alternateBounds" />
          </mxGeometry>
        </mxCell>
        <mxCell id="3GKI9lWFmnvysXcDFJsr-7" value="person_name" style="shape=partialRectangle;overflow=hidden;connectable=0;fillColor=none;top=0;left=0;bottom=0;right=0;align=left;spacingLeft=6;" parent="3GKI9lWFmnvysXcDFJsr-5" vertex="1">
          <mxGeometry x="170" width="105" height="28" as="geometry">
            <mxRectangle width="105" height="28" as="alternateBounds" />
          </mxGeometry>
        </mxCell>
        <mxCell id="yse1gs5Y-NVfOcOp2l11-19" style="shape=partialRectangle;collapsible=0;dropTarget=0;pointerEvents=0;fillColor=none;points=[[0,0.5],[1,0.5]];portConstraint=eastwest;top=0;left=0;right=0;bottom=0;" vertex="1" parent="3GKI9lWFmnvysXcDFJsr-1">
          <mxGeometry y="90" width="275" height="28" as="geometry" />
        </mxCell>
        <mxCell id="yse1gs5Y-NVfOcOp2l11-20" style="shape=partialRectangle;overflow=hidden;connectable=0;fillColor=none;top=0;left=0;bottom=0;right=0;" vertex="1" parent="yse1gs5Y-NVfOcOp2l11-19">
          <mxGeometry width="170" height="28" as="geometry">
            <mxRectangle width="170" height="28" as="alternateBounds" />
          </mxGeometry>
        </mxCell>
        <mxCell id="yse1gs5Y-NVfOcOp2l11-21" style="shape=partialRectangle;overflow=hidden;connectable=0;fillColor=none;top=0;left=0;bottom=0;right=0;align=left;spacingLeft=6;" vertex="1" parent="yse1gs5Y-NVfOcOp2l11-19">
          <mxGeometry x="170" width="105" height="28" as="geometry">
            <mxRectangle width="105" height="28" as="alternateBounds" />
          </mxGeometry>
        </mxCell>
        <mxCell id="3GKI9lWFmnvysXcDFJsr-11" value="Company" style="shape=table;startSize=30;container=1;collapsible=1;childLayout=tableLayout;fixedRows=0;rowLines=0;fontStyle=1;align=center;resizeLast=1;columnLines=0;" parent="1" vertex="1">
          <mxGeometry x="-104" y="-369" width="292.75" height="87.50000000000023" as="geometry" />
        </mxCell>
        <mxCell id="3GKI9lWFmnvysXcDFJsr-12" style="shape=partialRectangle;collapsible=0;dropTarget=0;pointerEvents=0;fillColor=none;points=[[0,0.5],[1,0.5]];portConstraint=eastwest;top=0;left=0;right=0;bottom=0;" parent="3GKI9lWFmnvysXcDFJsr-11" vertex="1">
          <mxGeometry y="30" width="292.75" height="30" as="geometry" />
        </mxCell>
        <mxCell id="3GKI9lWFmnvysXcDFJsr-13" value="CompanyId" style="shape=partialRectangle;overflow=hidden;connectable=0;fillColor=none;top=0;left=0;bottom=0;right=0;fontStyle=4" parent="3GKI9lWFmnvysXcDFJsr-12" vertex="1">
          <mxGeometry width="170" height="30" as="geometry">
            <mxRectangle width="170" height="30" as="alternateBounds" />
          </mxGeometry>
        </mxCell>
        <mxCell id="3GKI9lWFmnvysXcDFJsr-14" value="id" style="shape=partialRectangle;overflow=hidden;connectable=0;fillColor=none;top=0;left=0;bottom=0;right=0;align=left;spacingLeft=6;" parent="3GKI9lWFmnvysXcDFJsr-12" vertex="1">
          <mxGeometry x="170" width="122.75" height="30" as="geometry">
            <mxRectangle width="122.75" height="30" as="alternateBounds" />
          </mxGeometry>
        </mxCell>
        <mxCell id="3GKI9lWFmnvysXcDFJsr-15" value="" style="shape=partialRectangle;collapsible=0;dropTarget=0;pointerEvents=0;fillColor=none;points=[[0,0.5],[1,0.5]];portConstraint=eastwest;top=0;left=0;right=0;bottom=0;" parent="3GKI9lWFmnvysXcDFJsr-11" vertex="1">
          <mxGeometry y="60" width="292.75" height="28" as="geometry" />
        </mxCell>
        <mxCell id="3GKI9lWFmnvysXcDFJsr-16" value="CompanyName" style="shape=partialRectangle;overflow=hidden;connectable=0;fillColor=none;top=0;left=0;bottom=0;right=0;" parent="3GKI9lWFmnvysXcDFJsr-15" vertex="1">
          <mxGeometry width="170" height="28" as="geometry">
            <mxRectangle width="170" height="28" as="alternateBounds" />
          </mxGeometry>
        </mxCell>
        <mxCell id="3GKI9lWFmnvysXcDFJsr-17" value="company_name" style="shape=partialRectangle;overflow=hidden;connectable=0;fillColor=none;top=0;left=0;bottom=0;right=0;align=left;spacingLeft=6;" parent="3GKI9lWFmnvysXcDFJsr-15" vertex="1">
          <mxGeometry x="170" width="122.75" height="28" as="geometry">
            <mxRectangle width="122.75" height="28" as="alternateBounds" />
          </mxGeometry>
        </mxCell>
        <mxCell id="3GKI9lWFmnvysXcDFJsr-34" value="Page" style="shape=table;startSize=30;container=1;collapsible=1;childLayout=tableLayout;fixedRows=1;rowLines=0;fontStyle=1;align=center;resizeLast=1;strokeColor=default;perimeterSpacing=1;strokeWidth=1;swimlaneLine=1;columnLines=0;rounded=0;" parent="1" vertex="1">
          <mxGeometry x="470" y="-150" width="290.75" height="110" as="geometry" />
        </mxCell>
        <mxCell id="yse1gs5Y-NVfOcOp2l11-1" style="shape=partialRectangle;collapsible=0;dropTarget=0;pointerEvents=0;fillColor=none;points=[[0,0.5],[1,0.5]];portConstraint=eastwest;top=0;left=0;right=0;bottom=0;" vertex="1" parent="3GKI9lWFmnvysXcDFJsr-34">
          <mxGeometry y="30" width="290.75" height="40" as="geometry" />
        </mxCell>
        <mxCell id="yse1gs5Y-NVfOcOp2l11-2" value="PageId" style="shape=partialRectangle;overflow=hidden;connectable=0;fillColor=none;top=0;left=0;bottom=0;right=0;strokeColor=inherit;fontStyle=4" vertex="1" parent="yse1gs5Y-NVfOcOp2l11-1">
          <mxGeometry width="170" height="40" as="geometry">
            <mxRectangle width="170" height="40" as="alternateBounds" />
          </mxGeometry>
        </mxCell>
        <mxCell id="yse1gs5Y-NVfOcOp2l11-3" value="id" style="shape=partialRectangle;overflow=hidden;connectable=0;fillColor=none;top=0;left=0;bottom=0;right=0;align=left;spacingLeft=6;perimeterSpacing=4;strokeColor=default;strokeWidth=0;" vertex="1" parent="yse1gs5Y-NVfOcOp2l11-1">
          <mxGeometry x="170" width="90" height="40" as="geometry">
            <mxRectangle width="90" height="40" as="alternateBounds" />
          </mxGeometry>
        </mxCell>
        <mxCell id="yse1gs5Y-NVfOcOp2l11-4" style="shape=partialRectangle;overflow=hidden;connectable=0;fillColor=none;top=0;left=0;bottom=0;right=0;align=left;spacingLeft=6;perimeterSpacing=4;strokeColor=default;strokeWidth=0;" vertex="1" parent="yse1gs5Y-NVfOcOp2l11-1">
          <mxGeometry x="260" width="30.75" height="40" as="geometry">
            <mxRectangle width="30.75" height="40" as="alternateBounds" />
          </mxGeometry>
        </mxCell>
        <mxCell id="3GKI9lWFmnvysXcDFJsr-35" style="shape=partialRectangle;collapsible=0;dropTarget=0;pointerEvents=0;fillColor=none;points=[[0,0.5],[1,0.5]];portConstraint=eastwest;top=0;left=0;right=0;bottom=0;" parent="3GKI9lWFmnvysXcDFJsr-34" vertex="1">
          <mxGeometry y="70" width="290.75" height="40" as="geometry" />
        </mxCell>
        <mxCell id="3GKI9lWFmnvysXcDFJsr-36" value="NotionPageId" style="shape=partialRectangle;overflow=hidden;connectable=0;fillColor=none;top=0;left=0;bottom=0;right=0;strokeColor=inherit;fontStyle=0" parent="3GKI9lWFmnvysXcDFJsr-35" vertex="1">
          <mxGeometry width="170" height="40" as="geometry">
            <mxRectangle width="170" height="40" as="alternateBounds" />
          </mxGeometry>
        </mxCell>
        <mxCell id="3GKI9lWFmnvysXcDFJsr-37" value="notion_id" style="shape=partialRectangle;overflow=hidden;connectable=0;fillColor=none;top=0;left=0;bottom=0;right=0;align=left;spacingLeft=6;perimeterSpacing=4;strokeColor=default;strokeWidth=0;" parent="3GKI9lWFmnvysXcDFJsr-35" vertex="1">
          <mxGeometry x="170" width="90" height="40" as="geometry">
            <mxRectangle width="90" height="40" as="alternateBounds" />
          </mxGeometry>
        </mxCell>
        <mxCell id="eQEU4PPi6ts09ibyv7uh-1" value="K1" style="shape=partialRectangle;overflow=hidden;connectable=0;fillColor=none;top=0;left=0;bottom=0;right=0;align=left;spacingLeft=6;perimeterSpacing=4;strokeColor=default;strokeWidth=0;" parent="3GKI9lWFmnvysXcDFJsr-35" vertex="1">
          <mxGeometry x="260" width="30.75" height="40" as="geometry">
            <mxRectangle width="30.75" height="40" as="alternateBounds" />
          </mxGeometry>
        </mxCell>
        <mxCell id="yse1gs5Y-NVfOcOp2l11-5" value="PageTags" style="shape=table;startSize=30;container=1;collapsible=1;childLayout=tableLayout;fixedRows=0;rowLines=0;fontStyle=1;align=center;resizeLast=1;columnLines=0;rounded=1;dashed=1;" vertex="1" parent="1">
          <mxGeometry x="133" y="65" width="292.75" height="87.50000000000023" as="geometry" />
        </mxCell>
        <mxCell id="yse1gs5Y-NVfOcOp2l11-6" style="shape=partialRectangle;collapsible=0;dropTarget=0;pointerEvents=0;fillColor=none;points=[[0,0.5],[1,0.5]];portConstraint=eastwest;top=0;left=0;right=0;bottom=0;" vertex="1" parent="yse1gs5Y-NVfOcOp2l11-5">
          <mxGeometry y="30" width="292.75" height="30" as="geometry" />
        </mxCell>
        <mxCell id="yse1gs5Y-NVfOcOp2l11-7" value="PageId" style="shape=partialRectangle;overflow=hidden;connectable=0;fillColor=none;top=0;left=0;bottom=0;right=0;fontStyle=4" vertex="1" parent="yse1gs5Y-NVfOcOp2l11-6">
          <mxGeometry width="170" height="30" as="geometry">
            <mxRectangle width="170" height="30" as="alternateBounds" />
          </mxGeometry>
        </mxCell>
        <mxCell id="yse1gs5Y-NVfOcOp2l11-8" value="id" style="shape=partialRectangle;overflow=hidden;connectable=0;fillColor=none;top=0;left=0;bottom=0;right=0;align=left;spacingLeft=6;" vertex="1" parent="yse1gs5Y-NVfOcOp2l11-6">
          <mxGeometry x="170" width="122.75" height="30" as="geometry">
            <mxRectangle width="122.75" height="30" as="alternateBounds" />
          </mxGeometry>
        </mxCell>
        <mxCell id="yse1gs5Y-NVfOcOp2l11-9" value="" style="shape=partialRectangle;collapsible=0;dropTarget=0;pointerEvents=0;fillColor=none;points=[[0,0.5],[1,0.5]];portConstraint=eastwest;top=0;left=0;right=0;bottom=0;" vertex="1" parent="yse1gs5Y-NVfOcOp2l11-5">
          <mxGeometry y="60" width="292.75" height="28" as="geometry" />
        </mxCell>
        <mxCell id="yse1gs5Y-NVfOcOp2l11-10" value="TagId" style="shape=partialRectangle;overflow=hidden;connectable=0;fillColor=none;top=0;left=0;bottom=0;right=0;fontStyle=4" vertex="1" parent="yse1gs5Y-NVfOcOp2l11-9">
          <mxGeometry width="170" height="28" as="geometry">
            <mxRectangle width="170" height="28" as="alternateBounds" />
          </mxGeometry>
        </mxCell>
        <mxCell id="yse1gs5Y-NVfOcOp2l11-11" value="id" style="shape=partialRectangle;overflow=hidden;connectable=0;fillColor=none;top=0;left=0;bottom=0;right=0;align=left;spacingLeft=6;" vertex="1" parent="yse1gs5Y-NVfOcOp2l11-9">
          <mxGeometry x="170" width="122.75" height="28" as="geometry">
            <mxRectangle width="122.75" height="28" as="alternateBounds" />
          </mxGeometry>
        </mxCell>
        <mxCell id="yse1gs5Y-NVfOcOp2l11-12" value="Onboarding" style="shape=table;startSize=30;container=1;collapsible=1;childLayout=tableLayout;fixedRows=0;rowLines=0;fontStyle=1;align=center;resizeLast=1;columnLines=0;rounded=1;dashed=1;" vertex="1" parent="1">
          <mxGeometry x="150" y="-217" width="292.75" height="87.50000000000023" as="geometry" />
        </mxCell>
        <mxCell id="yse1gs5Y-NVfOcOp2l11-13" style="shape=partialRectangle;collapsible=0;dropTarget=0;pointerEvents=0;fillColor=none;points=[[0,0.5],[1,0.5]];portConstraint=eastwest;top=0;left=0;right=0;bottom=0;" vertex="1" parent="yse1gs5Y-NVfOcOp2l11-12">
          <mxGeometry y="30" width="292.75" height="30" as="geometry" />
        </mxCell>
        <mxCell id="yse1gs5Y-NVfOcOp2l11-14" value="Id" style="shape=partialRectangle;overflow=hidden;connectable=0;fillColor=none;top=0;left=0;bottom=0;right=0;fontStyle=4" vertex="1" parent="yse1gs5Y-NVfOcOp2l11-13">
          <mxGeometry width="170" height="30" as="geometry">
            <mxRectangle width="170" height="30" as="alternateBounds" />
          </mxGeometry>
        </mxCell>
        <mxCell id="yse1gs5Y-NVfOcOp2l11-15" value="id" style="shape=partialRectangle;overflow=hidden;connectable=0;fillColor=none;top=0;left=0;bottom=0;right=0;align=left;spacingLeft=6;" vertex="1" parent="yse1gs5Y-NVfOcOp2l11-13">
          <mxGeometry x="170" width="122.75" height="30" as="geometry">
            <mxRectangle width="122.75" height="30" as="alternateBounds" />
          </mxGeometry>
        </mxCell>
        <mxCell id="yse1gs5Y-NVfOcOp2l11-16" value="" style="shape=partialRectangle;collapsible=0;dropTarget=0;pointerEvents=0;fillColor=none;points=[[0,0.5],[1,0.5]];portConstraint=eastwest;top=0;left=0;right=0;bottom=0;" vertex="1" parent="yse1gs5Y-NVfOcOp2l11-12">
          <mxGeometry y="60" width="292.75" height="28" as="geometry" />
        </mxCell>
        <mxCell id="yse1gs5Y-NVfOcOp2l11-17" value="TagId" style="shape=partialRectangle;overflow=hidden;connectable=0;fillColor=none;top=0;left=0;bottom=0;right=0;fontStyle=4" vertex="1" parent="yse1gs5Y-NVfOcOp2l11-16">
          <mxGeometry width="170" height="28" as="geometry">
            <mxRectangle width="170" height="28" as="alternateBounds" />
          </mxGeometry>
        </mxCell>
        <mxCell id="yse1gs5Y-NVfOcOp2l11-18" value="id" style="shape=partialRectangle;overflow=hidden;connectable=0;fillColor=none;top=0;left=0;bottom=0;right=0;align=left;spacingLeft=6;" vertex="1" parent="yse1gs5Y-NVfOcOp2l11-16">
          <mxGeometry x="170" width="122.75" height="28" as="geometry">
            <mxRectangle width="122.75" height="28" as="alternateBounds" />
          </mxGeometry>
        </mxCell>
      </root>
    </mxGraphModel>
  </diagram>
</mxfile>
